<?xml version="1.0" standalone="no"?>
<!DOCTYPE svg PUBLIC "-//W3C//DTD SVG 20010904//EN"
 "http://www.w3.org/TR/2001/REC-SVG-20010904/DTD/svg10.dtd">
<svg version="1.0" xmlns="http://www.w3.org/2000/svg"
 width="589.000000pt" height="600.000000pt" viewBox="0 0 589.000000 600.000000"
 preserveAspectRatio="xMidYMid meet">
<metadata>
Created by potrace 1.15, written by Peter Selinger 2001-2017
</metadata>
<g transform="translate(0.000000,600.000000) scale(0.100000,-0.100000)"
fill="#000000" stroke="none">
<path d="M1445 5170 c-22 -11 -110 -72 -195 -135 -85 -63 -220 -163 -299 -222
-126 -93 -149 -115 -191 -180 -38 -57 -50 -85 -54 -126 -3 -28 -10 -777 -16
-1664 -12 -1775 -16 -1649 48 -1717 27 -28 458 -386 583 -484 116 -90 -67 -82
1802 -82 1644 0 1663 0 1702 20 l39 20 51 -48 c27 -27 169 -163 315 -302 l265
-253 182 189 c101 104 183 192 183 196 0 3 -164 163 -363 355 l-364 348 29 59
30 59 -2 1654 c-1 1778 2 1680 -50 1752 -26 37 -568 486 -623 516 -94 52 -120
53 -1632 59 -1393 6 -1400 6 -1440 -14z m2182 -327 l629 -6 265 -219 c145
-121 278 -227 296 -235 l31 -16 7 -101 c3 -56 5 -734 3 -1508 l-3 -1406 -103
100 c-64 61 -114 101 -130 104 -25 5 -212 51 -305 75 l-37 10 25 27 c14 15 25
30 25 35 0 4 16 23 35 41 19 19 35 39 35 44 0 5 9 17 20 27 11 10 20 24 20 32
0 7 4 13 8 13 4 0 16 15 27 33 10 17 21 34 25 37 10 8 70 135 70 148 0 7 5 12
10 12 6 0 10 7 10 15 0 8 4 15 9 15 5 0 12 18 16 40 4 22 11 40 16 40 5 0 9 9
9 19 0 11 4 22 9 25 5 4 12 24 16 46 4 22 10 42 15 45 5 3 12 34 15 70 4 36
11 68 16 71 5 3 9 22 9 43 0 20 5 42 10 47 7 7 9 112 6 310 -4 294 -10 394
-26 394 -4 0 -11 29 -15 65 -3 36 -10 65 -15 65 -4 0 -10 18 -14 40 -3 23 -10
49 -15 58 -17 32 -41 90 -41 99 0 14 -24 63 -32 63 -3 0 -9 14 -13 30 -4 17
-11 30 -16 30 -5 0 -9 9 -9 20 0 11 -7 23 -15 26 -8 4 -15 12 -15 20 0 8 -4
14 -9 14 -5 0 -12 11 -15 25 -4 14 -11 25 -16 25 -6 0 -10 7 -10 15 0 8 -3 15
-8 15 -4 0 -16 16 -27 36 -10 19 -26 44 -34 54 -9 10 -32 38 -51 62 -49 60
-143 158 -152 158 -4 0 -35 27 -69 60 -34 33 -65 60 -69 60 -4 0 -21 12 -37
28 -47 42 -76 62 -90 62 -7 0 -13 5 -13 10 0 6 -7 10 -15 10 -8 0 -15 4 -15
10 0 5 -11 12 -25 16 -14 3 -25 10 -25 14 0 5 -14 12 -32 15 -17 4 -40 16 -51
26 -11 10 -33 21 -48 24 -16 4 -29 11 -29 16 0 5 -6 9 -14 9 -7 0 -27 7 -42
15 -16 8 -37 15 -46 15 -9 0 -20 4 -23 10 -3 5 -28 12 -55 16 -28 4 -50 10
-50 15 0 5 -15 9 -33 9 -18 0 -37 4 -43 10 -40 40 -874 38 -874 -2 0 -4 -16
-8 -35 -8 -19 0 -35 -4 -35 -9 0 -5 -19 -11 -42 -15 -23 -4 -47 -11 -53 -15
-5 -5 -23 -11 -40 -15 -39 -9 -85 -29 -85 -37 0 -4 -16 -10 -35 -13 -19 -4
-35 -11 -35 -16 0 -6 -7 -10 -15 -10 -8 0 -15 -4 -15 -9 0 -5 -12 -12 -27 -16
-16 -4 -54 -24 -87 -46 -32 -21 -60 -39 -63 -39 -4 0 -20 -12 -48 -37 -7 -7
-17 -13 -21 -13 -4 0 -17 -11 -30 -25 -13 -14 -26 -25 -29 -25 -9 0 -27 -17
-140 -128 -58 -57 -105 -106 -105 -110 0 -4 -18 -27 -40 -51 -22 -24 -40 -47
-40 -52 0 -4 -10 -19 -22 -32 -36 -38 -58 -70 -58 -84 0 -7 -4 -13 -10 -13 -5
0 -10 -7 -10 -15 0 -8 -4 -15 -10 -15 -5 0 -10 -6 -10 -14 0 -8 -6 -21 -13
-28 -7 -7 -22 -34 -33 -60 -10 -27 -22 -48 -26 -48 -4 0 -10 -17 -14 -37 -4
-21 -10 -40 -13 -43 -14 -12 -31 -52 -37 -90 -4 -22 -10 -40 -14 -40 -5 0 -11
-27 -15 -60 -4 -33 -11 -63 -16 -66 -5 -3 -9 -18 -9 -33 0 -15 -6 -33 -12 -40
-19 -18 -19 -724 0 -743 6 -6 12 -29 12 -49 0 -21 4 -40 9 -43 5 -3 12 -35 16
-71 3 -36 11 -67 16 -70 5 -4 9 -16 9 -28 0 -12 7 -35 15 -51 8 -15 15 -35 15
-42 0 -8 4 -14 9 -14 5 0 11 -18 15 -39 3 -22 9 -41 13 -43 5 -1 17 -21 28
-43 11 -22 26 -46 32 -53 7 -7 13 -20 13 -28 0 -8 4 -14 9 -14 5 0 11 -8 15
-18 6 -18 24 -48 41 -68 6 -6 19 -25 30 -40 22 -32 221 -234 230 -234 6 0 20
-11 50 -38 7 -6 16 -12 20 -12 3 0 16 -11 29 -25 13 -14 28 -25 34 -25 6 0 22
-11 36 -25 14 -14 29 -25 33 -25 4 0 18 -10 29 -23 12 -12 44 -33 70 -47 27
-14 58 -33 69 -43 11 -10 32 -21 48 -24 15 -3 27 -8 27 -12 0 -6 14 -12 112
-55 20 -9 45 -16 57 -16 12 0 21 -4 21 -10 0 -5 11 -10 25 -10 14 0 25 -4 25
-9 0 -5 20 -12 45 -15 24 -4 47 -11 50 -15 2 -5 40 -12 82 -16 43 -4 81 -12
85 -19 10 -16 626 -16 636 0 4 6 39 15 77 19 39 4 75 11 80 15 6 4 29 11 52
15 24 4 45 11 49 16 3 5 16 9 30 9 13 0 24 4 24 9 0 5 18 11 40 15 22 3 40 10
40 14 0 4 23 15 50 25 28 10 50 22 50 27 0 4 14 11 30 15 17 4 30 10 30 13 0
4 18 15 40 25 22 9 40 21 40 27 0 5 9 10 20 10 11 0 23 7 26 15 4 8 12 15 20
15 8 0 14 4 14 9 0 5 8 12 18 15 10 4 27 14 38 24 10 9 39 33 64 52 25 19 50
42 57 50 8 10 15 12 21 5 12 -12 102 -299 102 -325 0 -10 62 -78 141 -154
l140 -136 -1460 0 -1461 0 -278 229 c-152 125 -292 236 -310 245 l-34 17 6 72
c3 40 8 610 11 1267 3 657 8 1299 11 1426 l7 231 255 189 c141 104 274 208
297 231 l40 41 681 1 c374 1 964 -2 1311 -6z m129 -961 c5 -5 35 -17 67 -27
31 -11 57 -23 57 -27 0 -4 5 -8 12 -8 19 0 118 -65 176 -117 14 -13 28 -23 33
-23 4 0 10 -8 14 -19 3 -10 16 -30 28 -44 29 -32 43 -54 64 -99 10 -21 21 -38
25 -38 5 0 8 -6 8 -12 0 -7 7 -26 16 -43 8 -16 18 -49 21 -72 3 -24 10 -46 14
-49 5 -3 9 -18 9 -35 0 -16 4 -29 9 -29 5 0 12 -48 15 -107 4 -60 11 -116 16
-125 15 -27 13 -276 -2 -292 -10 -11 -15 -11 -25 0 -7 7 -13 17 -13 23 0 6 -4
11 -9 11 -5 0 -12 79 -16 175 -4 97 -11 178 -16 181 -5 3 -9 32 -9 64 0 32 -4
61 -9 64 -5 3 -12 35 -16 71 -3 36 -11 65 -16 65 -5 0 -9 10 -9 23 0 12 -7 35
-15 51 -8 15 -15 35 -15 42 0 8 -4 14 -9 14 -5 0 -11 10 -15 23 -3 12 -14 32
-26 44 -11 12 -20 27 -20 32 0 12 -100 112 -148 148 -20 16 -43 34 -50 41 -7
6 -20 12 -28 12 -8 0 -14 5 -14 10 0 6 -7 10 -15 10 -8 0 -15 4 -15 10 0 5
-16 12 -35 16 -19 3 -35 10 -35 15 0 5 -7 9 -15 9 -8 0 -15 5 -15 10 0 12 13
13 26 2z m-24 -269 c18 -10 35 -21 36 -25 2 -5 8 -8 13 -8 14 0 142 -131 170
-175 32 -49 52 -94 74 -165 10 -30 22 -65 28 -78 6 -12 11 -91 11 -175 1 -131
-1 -156 -16 -170 -20 -21 -25 -21 -44 -3 -11 11 -14 49 -14 173 -1 87 -5 178
-11 203 -6 25 -13 57 -16 73 -3 15 -9 27 -14 27 -5 0 -9 7 -9 16 0 20 -30 84
-47 102 -7 7 -13 17 -13 22 0 5 -12 23 -27 39 -16 16 -37 40 -49 53 -23 25
-90 83 -114 98 -27 17 7 11 42 -7z m-138 -233 c35 -21 106 -96 106 -111 0 -5
4 -9 9 -9 5 0 12 -16 15 -35 4 -19 11 -35 16 -35 6 0 10 -11 10 -24 0 -13 5
-26 11 -28 7 -2 12 -45 13 -118 l1 -115 -25 0 c-24 0 -25 3 -28 60 -2 33 -7
64 -13 70 -5 5 -9 28 -9 51 0 24 -4 45 -9 48 -4 3 -11 23 -15 44 -3 22 -13 52
-21 68 -8 16 -15 35 -15 42 0 6 -4 12 -10 12 -5 0 -10 7 -10 15 0 8 -4 15 -9
15 -5 0 -12 9 -16 19 -3 11 -15 23 -26 26 -10 4 -19 11 -19 16 0 13 9 11 44
-11z m-677 -16 c2 -6 -24 -19 -57 -30 -33 -10 -60 -22 -60 -26 0 -5 -6 -8 -14
-8 -18 0 -76 -32 -76 -42 0 -5 -6 -8 -14 -8 -17 0 -104 -94 -120 -130 -6 -14
-16 -31 -23 -38 -7 -7 -13 -22 -13 -33 0 -10 -4 -19 -10 -19 -5 0 -10 -8 -10
-18 0 -10 -6 -24 -12 -30 -9 -9 -13 -58 -13 -172 0 -114 4 -163 13 -171 6 -7
12 -21 12 -30 0 -9 7 -19 15 -23 8 -3 15 -12 15 -21 0 -19 97 -115 116 -115 8
0 14 -3 14 -8 0 -9 74 -42 95 -42 8 0 15 -4 15 -9 0 -11 61 -21 173 -27 58 -4
87 -2 87 5 0 6 16 11 35 11 19 0 35 4 35 9 0 5 17 11 38 15 21 3 47 14 58 23
11 10 41 29 67 43 26 13 50 32 53 42 3 9 14 20 25 23 10 4 19 10 19 15 0 5 6
15 13 22 7 7 18 24 25 38 6 14 21 41 32 60 11 19 20 49 20 67 0 18 5 33 10 33
12 0 14 197 1 204 -4 3 -11 24 -15 46 -3 22 -11 40 -16 40 -6 0 -10 7 -10 15
0 8 -4 15 -9 15 -5 0 -12 13 -16 29 -3 16 -24 47 -46 69 -38 39 -54 66 -24 40
49 -42 95 -92 95 -104 0 -8 4 -14 8 -14 5 0 17 -18 28 -40 10 -22 22 -40 26
-40 4 0 10 -25 13 -55 4 -30 11 -58 16 -61 12 -7 12 -101 0 -108 -4 -3 -11
-33 -15 -66 -4 -33 -11 -60 -16 -60 -6 0 -10 -8 -10 -17 0 -10 -7 -27 -15 -37
-8 -11 -15 -28 -15 -38 0 -10 -5 -18 -10 -18 -6 0 -14 -8 -17 -17 -9 -23 -108
-123 -122 -123 -6 0 -11 -4 -11 -10 0 -5 -11 -12 -25 -16 -14 -3 -25 -10 -25
-15 0 -5 -7 -9 -15 -9 -8 0 -15 -4 -15 -10 0 -5 -8 -10 -17 -10 -10 0 -31 -7
-48 -16 -16 -8 -58 -18 -93 -21 -34 -3 -65 -10 -68 -14 -7 -12 -101 -12 -108
0 -3 4 -36 11 -72 14 -37 4 -70 11 -73 16 -4 5 -19 13 -34 16 -15 4 -27 11
-27 15 0 4 -8 10 -17 14 -48 15 -161 123 -184 174 -8 18 -17 32 -21 32 -4 0
-10 17 -13 38 -3 20 -10 45 -16 54 -5 10 -9 33 -9 52 0 19 -4 38 -10 41 -5 3
-10 22 -10 41 0 19 5 34 10 34 6 0 10 23 10 50 0 28 4 50 9 50 4 0 11 17 14
38 6 37 55 144 70 150 4 2 7 10 7 17 0 20 139 157 183 180 20 11 37 23 37 27
0 18 171 20 177 2z m132 -341 c56 -24 85 -82 79 -157 -3 -32 -9 -61 -15 -64
-6 -4 -13 -16 -17 -27 -3 -11 -24 -28 -44 -37 -41 -19 -142 -25 -142 -8 0 6
-6 10 -13 10 -17 0 -57 34 -57 47 0 6 -7 16 -15 23 -21 17 -19 100 3 147 16
37 39 61 72 75 29 13 110 8 149 -9z m-1429 -63 c15 -9 20 -53 36 -322 3 -49 9
-88 13 -88 5 0 11 -37 15 -82 4 -46 11 -87 16 -92 6 -6 10 -20 10 -33 0 -13 4
-23 9 -23 5 0 11 -22 15 -50 4 -27 11 -50 16 -50 6 0 10 -5 10 -11 0 -13 31
-82 41 -89 3 -3 9 -15 13 -27 4 -12 16 -25 26 -28 11 -4 23 -17 26 -31 3 -13
10 -24 16 -24 9 0 30 -15 51 -38 41 -44 74 -72 85 -72 6 0 12 -4 12 -10 0 -5
9 -10 20 -10 11 0 20 -4 20 -9 0 -6 28 -24 63 -40 34 -17 55 -31 47 -31 -8 0
-28 7 -44 15 -15 8 -35 15 -42 15 -8 0 -14 4 -14 9 0 5 -13 12 -30 16 -16 4
-30 11 -30 16 0 5 -7 9 -15 9 -37 0 -265 203 -265 235 0 4 -7 13 -15 21 -8 9
-15 24 -15 35 0 10 -4 19 -10 19 -5 0 -12 16 -16 35 -3 19 -10 38 -15 41 -5 3
-9 14 -9 25 0 10 -4 19 -10 19 -5 0 -12 27 -16 60 -4 33 -10 60 -14 60 -5 0
-11 44 -15 98 -3 53 -10 105 -15 114 -11 20 -14 311 -3 321 8 9 15 9 33 -3z
m297 -98 c19 -16 21 -31 24 -210 3 -124 8 -195 15 -200 6 -4 14 -23 18 -42 8
-43 28 -90 38 -90 5 0 8 -8 8 -18 0 -10 14 -34 30 -52 17 -18 30 -38 30 -43 0
-11 74 -85 126 -125 27 -23 28 -24 4 -17 -13 4 -30 14 -38 21 -7 8 -20 14 -28
14 -8 0 -14 4 -14 8 0 5 -16 17 -35 28 -19 10 -35 21 -35 24 0 7 -27 42 -62
82 -16 16 -28 36 -28 44 0 8 -4 14 -9 14 -5 0 -12 14 -16 30 -4 17 -11 30 -16
30 -5 0 -9 9 -9 19 0 11 -4 23 -10 26 -5 3 -12 28 -16 56 -4 27 -11 52 -15 55
-5 3 -9 27 -9 55 0 27 -4 49 -10 49 -6 0 -10 40 -10 100 0 60 4 100 10 100 6
0 10 11 10 24 0 13 6 27 13 29 6 3 12 6 13 6 1 1 10 -7 21 -17z m281 -84 c7
-7 12 -39 12 -74 0 -35 4 -65 9 -68 4 -3 11 -35 14 -70 5 -58 20 -101 38 -116
4 -3 10 -20 14 -37 3 -18 11 -33 16 -33 5 0 9 -6 9 -14 0 -8 10 -23 23 -33 12
-10 30 -28 40 -39 17 -21 17 -21 -8 -17 -14 3 -25 9 -25 14 0 5 -5 9 -11 9 -6
0 -24 14 -41 30 -16 17 -34 30 -39 30 -5 0 -9 7 -9 16 0 17 -31 77 -42 82 -4
2 -10 20 -14 40 -4 20 -11 40 -16 43 -11 7 -23 188 -14 223 7 28 24 34 44 14z"/>
</g>
</svg>
